HIERARCHY
ROOT Hips
{
  OFFSET -0.75662601 87.889205933 8.048331261
  CHANNELS 6 Xposition Yposition Zposition Zrotation Xrotation Yrotation
  JOINT Spine
  {
    OFFSET 6e-09 8.814247131 -2.080107689
    CHANNELS 3 Zrotation Xrotation Yrotation
    JOINT Spine1
    {
      OFFSET -2e-09 8.844141006 -1.32e-07
      CHANNELS 3 Zrotation Xrotation Yrotation
      JOINT Spine2
      {
        OFFSET -3e-09 11.682268143 -1.74e-07
        CHANNELS 3 Zrotation Xrotation Yrotation
        JOINT Spine3
        {
          OFFSET -3e-09 11.746700287 -1.75e-07
          CHANNELS 3 Zrotation Xrotation Yrotation
          JOINT Neck
          {
            OFFSET -4e-09 17.65826416 -2.63e-07
            CHANNELS 3 Zrotation Xrotation Yrotation
            JOINT Neck1
            {
              OFFSET -1e-09 5.101514816 -7.6e-08
              CHANNELS 3 Zrotation Xrotation Yrotation
              JOINT Head
              {
                OFFSET -1e-09 5.101514816 -7.6e-08
                CHANNELS 3 Zrotation Xrotation Yrotation
                JOINT HeadEnd
                {
                  OFFSET -3e-09 11.65508461 -1.74e-07
                  CHANNELS 0 
                  End Site
                  {
                    OFFSET -1e-09 3.496525526 -5.2e-08
                  }
                }
              }
            }
          }
          JOINT RightShoulder
          {
            OFFSET -2.625389099 11.175209999 -1.66e-07
            CHANNELS 3 Zrotation Xrotation Yrotation
            JOINT RightArm
            {
              OFFSET -10.434713364 1.866e-06 0.0
              CHANNELS 3 Zrotation Xrotation Yrotation
              JOINT RightForeArm
              {
                OFFSET -29.628414154 5.298e-06 1e-09
                CHANNELS 3 Zrotation Xrotation Yrotation
                JOINT RightHand
                {
                  OFFSET -22.857606888 4.087e-06 1e-09
                  CHANNELS 3 Zrotation Xrotation Yrotation
                  JOINT RightHandThumb1
                  {
                    OFFSET -3.959562778 -2.867321968 2.944291115
                    CHANNELS 3 Zrotation Xrotation Yrotation
                    JOINT RightHandThumb2
                    {
                      OFFSET -2.445448637 -0.174736127 2.28350997
                      CHANNELS 3 Zrotation Xrotation Yrotation
                      JOINT RightHandThumb3
                      {
                        OFFSET -2.741867542 -0.195916325 2.560299873
                        CHANNELS 3 Zrotation Xrotation Yrotation
                        JOINT RightHandThumb4
                        {
                          OFFSET -2.297240019 -0.164146081 2.145115852
                          CHANNELS 0 
                          End Site
                          {
                            OFFSET -0.689172029 -0.049243826 0.64353478
                          }
                        }
                      }
                    }
                  }
                  JOINT RightHandIndex1
                  {
                    OFFSET -10.030892372 -0.086750746 2.345279694
                    CHANNELS 3 Zrotation Xrotation Yrotation
                    JOINT RightHandIndex2
                    {
                      OFFSET -4.061089516 2.42e-07 3e-09
                      CHANNELS 3 Zrotation Xrotation Yrotation
                      JOINT RightHandIndex3
                      {
                        OFFSET -3.248872519 1.94e-07 2e-09
                        CHANNELS 3 Zrotation Xrotation Yrotation
                        JOINT RightHandIndex4
                        {
                          OFFSET -2.639708757 1.57e-07 2e-09
                          CHANNELS 0 
                          End Site
                          {
                            OFFSET -0.791912675 4.7e-08 1e-09
                          }
                        }
                      }
                    }
                  }
                  JOINT RightHandMiddle1
                  {
                    OFFSET -9.502950668 0.104103126 0.006767988
                    CHANNELS 3 Zrotation Xrotation Yrotation
                    JOINT RightHandMiddle2
                    {
                      OFFSET -4.56872654 2.72e-07 3e-09
                      CHANNELS 3 Zrotation Xrotation Yrotation
                      JOINT RightHandMiddle3
                      {
                        OFFSET -3.654980421 2.18e-07 3e-09
                        CHANNELS 3 Zrotation Xrotation Yrotation
                        JOINT RightHandMiddle4
                        {
                          OFFSET -2.741235733 1.63e-07 2e-09
                          CHANNELS 0 
                          End Site
                          {
                            OFFSET -0.822370768 4.9e-08 1e-09
                          }
                        }
                      }
                    }
                  }
                  JOINT RightHandRing1
                  {
                    OFFSET -8.9217062 0.0867531 -2.267441988
                    CHANNELS 3 Zrotation Xrotation Yrotation
                    JOINT RightHandRing2
                    {
                      OFFSET -4.061089516 2.42e-07 3e-09
                      CHANNELS 3 Zrotation Xrotation Yrotation
                      JOINT RightHandRing3
                      {
                        OFFSET -3.654980421 2.18e-07 3e-09
                        CHANNELS 3 Zrotation Xrotation Yrotation
                        JOINT RightHandRing4
                        {
                          OFFSET -2.741235733 1.63e-07 2e-09
                          CHANNELS 0 
                          End Site
                          {
                            OFFSET -0.822370768 4.9e-08 1e-09
                          }
                        }
                      }
                    }
                  }
                  JOINT RightHandPinky1
                  {
                    OFFSET -7.976995468 -0.173503041 -4.467198372
                    CHANNELS 3 Zrotation Xrotation Yrotation
                    JOINT RightHandPinky2
                    {
                      OFFSET -3.35039854 2e-07 2e-09
                      CHANNELS 3 Zrotation Xrotation Yrotation
                      JOINT RightHandPinky3
                      {
                        OFFSET -2.842762709 1.69e-07 2e-09
                        CHANNELS 3 Zrotation Xrotation Yrotation
                        JOINT RightHandPinky4
                        {
                          OFFSET -2.639708757 1.57e-07 2e-09
                          CHANNELS 0 
                          End Site
                          {
                            OFFSET -0.791912675 4.7e-08 1e-09
                          }
                        }
                      }
                    }
                  }
                  JOINT RightForeArmEnd
                  {
                    OFFSET 0.0 0.0 0.0
                    CHANNELS 0 
                    End Site
                    {
                      OFFSET -0.0 -0.0 -0.0
                    }
                  }
                }
                JOINT RightArmEnd
                {
                  OFFSET 0.0 0.0 0.0
                  CHANNELS 0 
                  End Site
                  {
                    OFFSET -0.0 0.0 0.0
                  }
                }
              }
            }
          }
          JOINT LeftShoulder
          {
            OFFSET 2.625389099 11.175209999 -1.67e-07
            CHANNELS 3 Zrotation Xrotation Yrotation
            JOINT LeftArm
            {
              OFFSET 10.813632965 1.934e-06 -0.0
              CHANNELS 3 Zrotation Xrotation Yrotation
              JOINT LeftForeArm
              {
                OFFSET 28.724775314 5.136e-06 -1e-09
                CHANNELS 3 Zrotation Xrotation Yrotation
                JOINT LeftHand
                {
                  OFFSET 25.716159821 -0.644379199 -0.328870922
                  CHANNELS 3 Zrotation Xrotation Yrotation
                  JOINT LeftHandThumb1
                  {
                    OFFSET 3.959562778 -2.86732316 2.944291115
                    CHANNELS 3 Zrotation Xrotation Yrotation
                    JOINT LeftHandThumb2
                    {
                      OFFSET 2.445449114 -0.174736932 2.283510447
                      CHANNELS 3 Zrotation Xrotation Yrotation
                      JOINT LeftHandThumb3
                      {
                        OFFSET 2.741868019 -0.195917219 2.56030035
                        CHANNELS 3 Zrotation Xrotation Yrotation
                        JOINT LeftHandThumb4
                        {
                          OFFSET 2.262683392 -0.161677599 2.112847567
                          CHANNELS 3 Zrotation Xrotation Yrotation
                          End Site
                          {
                            OFFSET 0.678805053 -0.048503283 0.63385427
                          }
                        }
                      }
                    }
                  }
                  JOINT LeftHandIndex1
                  {
                    OFFSET 10.030893326 -0.086753085 2.345279694
                    CHANNELS 3 Zrotation Xrotation Yrotation
                    JOINT LeftHandIndex2
                    {
                      OFFSET 4.061089516 -4.84e-07 -2e-09
                      CHANNELS 3 Zrotation Xrotation Yrotation
                      JOINT LeftHandIndex3
                      {
                        OFFSET 3.248872757 -3.87e-07 -2e-09
                        CHANNELS 3 Zrotation Xrotation Yrotation
                        JOINT LeftHandIndex4
                        {
                          OFFSET 2.639708757 -3.15e-07 -1e-09
                          CHANNELS 0 
                          End Site
                          {
                            OFFSET 0.791912675 -9.4e-08 -0.0
                          }
                        }
                      }
                    }
                  }
                  JOINT LeftHandMiddle1
                  {
                    OFFSET 9.502951622 0.10410098 0.006767988
                    CHANNELS 3 Zrotation Xrotation Yrotation
                    JOINT LeftHandMiddle2
                    {
                      OFFSET 4.56872654 -5.45e-07 -2e-09
                      CHANNELS 3 Zrotation Xrotation Yrotation
                      JOINT LeftHandMiddle3
                      {
                        OFFSET 3.654980659 -4.36e-07 -2e-09
                        CHANNELS 3 Zrotation Xrotation Yrotation
                        JOINT LeftHandMiddle4
                        {
                          OFFSET 2.741235733 -3.27e-07 -1e-09
                          CHANNELS 0 
                          End Site
                          {
                            OFFSET 0.822370768 -9.8e-08 -0.0
                          }
                        }
                      }
                    }
                  }
                  JOINT LeftHandRing1
                  {
                    OFFSET 8.921708107 0.086751021 -2.267441988
                    CHANNELS 3 Zrotation Xrotation Yrotation
                    JOINT LeftHandRing2
                    {
                      OFFSET 4.061089516 -4.84e-07 -2e-09
                      CHANNELS 3 Zrotation Xrotation Yrotation
                      JOINT LeftHandRing3
                      {
                        OFFSET 3.654980659 -4.36e-07 -2e-09
                        CHANNELS 3 Zrotation Xrotation Yrotation
                        JOINT LeftHandRing4
                        {
                          OFFSET 2.741235733 -3.27e-07 -1e-09
                          CHANNELS 0 
                          End Site
                          {
                            OFFSET 0.822370768 -9.8e-08 -0.0
                          }
                        }
                      }
                    }
                  }
                  JOINT LeftHandPinky1
                  {
                    OFFSET 7.976996422 -0.173504964 -4.467198372
                    CHANNELS 3 Zrotation Xrotation Yrotation
                    JOINT LeftHandPinky2
                    {
                      OFFSET 3.350398779 -3.99e-07 -2e-09
                      CHANNELS 3 Zrotation Xrotation Yrotation
                      JOINT LeftHandPinky3
                      {
                        OFFSET 2.842762709 -3.39e-07 -1e-09
                        CHANNELS 3 Zrotation Xrotation Yrotation
                        JOINT LeftHandPinky4
                        {
                          OFFSET 2.639708757 -3.15e-07 -1e-09
                          CHANNELS 0 
                          End Site
                          {
                            OFFSET 0.791912675 -9.4e-08 -0.0
                          }
                        }
                      }
                    }
                  }
                  JOINT LeftForeArmEnd
                  {
                    OFFSET 0.0 0.0 0.0
                    CHANNELS 0 
                    End Site
                    {
                      OFFSET 0.0 -0.0 -0.0
                    }
                  }
                }
                JOINT LeftArmEnd
                {
                  OFFSET 0.0 0.0 0.0
                  CHANNELS 0 
                  End Site
                  {
                    OFFSET 0.0 -0.0 -0.0
                  }
                }
              }
            }
          }
        }
      }
    }
  }
  JOINT RightUpLeg
  {
    OFFSET -11.289941788 8e-09 -1e-09
    CHANNELS 3 Zrotation Xrotation Yrotation
    JOINT RightLeg
    {
      OFFSET 9e-09 -38.200317383 5.69e-07
      CHANNELS 3 Zrotation Xrotation Yrotation
      JOINT RightFoot
      {
        OFFSET 9e-09 -39.900848389 5.95e-07
        CHANNELS 3 Zrotation Xrotation Yrotation
        JOINT RightToeBase
        {
          OFFSET 0.0 5.59e-06 15.261640549
          CHANNELS 3 Zrotation Xrotation Yrotation
          JOINT RightToeBaseEnd
          {
            OFFSET 0.0 2.748e-06 7.370708942
            CHANNELS 0 
            End Site
            {
              OFFSET 0.0 3.95e-07 2.211212873
            }
          }
        }
        JOINT RightLegEnd
        {
          OFFSET 0.0 0.0 0.0
          CHANNELS 0 
          End Site
          {
            OFFSET 0.0 0.0 0.0
          }
        }
      }
      JOINT RightUpLegEnd
      {
        OFFSET 0.0 0.0 0.0
        CHANNELS 0 
        End Site
        {
          OFFSET 0.0 -0.0 0.0
        }
      }
    }
  }
  JOINT LeftUpLeg
  {
    OFFSET 11.31566143 -9e-09 1e-09
    CHANNELS 3 Zrotation Xrotation Yrotation
    JOINT LeftLeg
    {
      OFFSET 9e-09 -38.200317383 5.69e-07
      CHANNELS 3 Zrotation Xrotation Yrotation
      JOINT LeftFoot
      {
        OFFSET 9e-09 -39.900848389 5.95e-07
        CHANNELS 3 Zrotation Xrotation Yrotation
        JOINT LeftToeBase
        {
          OFFSET 0.0 5.59e-06 15.261640549
          CHANNELS 3 Zrotation Xrotation Yrotation
          JOINT LeftToeBaseEnd
          {
            OFFSET 0.0 1.825e-06 7.539995193
            CHANNELS 0 
            End Site
            {
              OFFSET 0.0 4.04e-07 2.261998653
            }
          }
        }
        JOINT LeftLegEnd
        {
          OFFSET 0.0 0.0 0.0
          CHANNELS 0 
          End Site
          {
            OFFSET 0.0 0.0 0.0
          }
        }
      }
      JOINT LeftUpLegEnd
      {
        OFFSET 0.0 0.0 0.0
        CHANNELS 0 
        End Site
        {
          OFFSET 0.0 -0.0 0.0
        }
      }
    }
  }
}
MOTION
Frames: 4
Frame Time: 0.03333333333333333
-0.75662601 87.889205933 8.048331261 -0.49359563 -20.490457535 -0.172788128 -1.264674067 10.748612404 0.058766041 -0.39342761 2.257652521 -0.047963243 8.37245369 19.21439743 -4.086623669 6.938110828 8.960193634 -0.384115398 25.44446373 19.638616562 -4.328086853 4.460309982 4.174737453 3.450932503 3.111346006 -18.933177948 2.493495941 5.48825264 0.995362222 10.600362778 49.537071228 16.243665695 16.813415527 0.135356948 -6.370943546 22.778175354 9.286619186 -20.120868683 -3.120470762 6.489052296 2.133670807 -2.948412657 0.449076235 1.807863116 -25.861206055 0.22554408 1.27958703 -17.955951691 11.005829811 -16.771198273 -9.688410759 9.301182747 0.778345406 -2.817629099 9.300369263 -0.208739787 -2.655976057 12.212566376 -6.884879589 -10.455374718 9.384742737 0.904433191 -1.147610784 9.383340836 -0.081597932 -0.988608837 18.098608017 8.849553108 -10.572939873 11.437641144 -1.85803175 1.790814161 11.431432724 0.110550947 1.394409418 23.858844757 25.475786209 -12.341702461 12.002459526 -3.40590167 5.642518044 11.981693268 0.503585458 4.811311245 -0.711365819 0.192814082 -14.40210247 -48.907737732 45.482868195 -23.671808243 -0.307280988 -13.037488937 -42.194335938 -5.212182045 -19.69201088 11.010556221 -6.489052296 2.133669615 2.948410988 -0.449076623 1.807864904 25.861206055 -0.225550935 1.279589415 17.955951691 -0.0 0.0 -0.0 -15.912716866 16.763383865 9.838078499 -8.778833389 -0.797385037 -2.66021204 -8.778030396 0.190858707 -2.507616043 -13.861207962 6.885340214 10.409778595 -8.772221565 -0.920419216 -1.069342852 -8.770998955 0.077900857 -0.915438294 -14.048875809 -8.873737335 9.686753273 -10.813765526 1.858687282 1.701488376 -10.808327675 -0.100048676 1.320807576 -12.67246151 -25.5333004 11.647368431 -11.527599335 3.443762541 5.422014713 -11.507073402 -0.47425127 4.623000145 -4.564633369 19.194318771 3.903698683 0.003721915 13.741454124 -0.949046493 0.069155045 13.77802372 0.378230631 -0.86609453 -18.565710068 0.897184849 3.395725965 26.047653198 12.858121872 0.006078942 6.258185863 1.125215411 -6.724050522 14.421318054 11.744244576 0.214605078 -15.901790619 -1.948582292 
-0.611980915 87.797866821 7.915057659 0.398383558 -20.243045807 0.10414575 -1.363717318 11.223546982 -0.012925236 -0.796198189 1.759068608 -0.096978724 8.956721306 19.283004761 -4.624688625 6.104620934 8.59086132 -0.811466992 24.890455246 19.450382233 -3.921872377 3.772021532 4.173676014 4.840662479 1.959363103 -20.812295914 1.545397282 4.260582924 1.03767097 10.298481941 50.087852478 19.496225357 17.707355499 -0.041433908 -9.914858818 21.89756012 9.260457039 -20.806447983 -2.909593344 6.825218201 2.16880846 -3.124397039 0.483812839 1.874883771 -26.90099144 0.242680281 1.328367591 -18.668111801 11.410251617 -16.626333237 -10.598525047 9.555915833 0.733720303 -2.759294748 9.622916222 -0.236026853 -2.614531517 12.531543732 -6.831179142 -11.346389771 9.551994324 0.898266256 -1.111826897 9.598688126 -0.086494841 -0.946854711 18.43829155 8.82606411 -10.852720261 11.420238495 -1.812752962 1.639561057 11.314297676 0.132661879 1.281083345 23.811502457 25.260072708 -11.995666504 11.753463745 -3.452811718 4.896680832 11.67757225 0.455745816 4.166024208 -2.234267712 0.212953731 -14.709404945 -51.986289978 41.535022736 -18.733850479 -0.635297537 -11.246372223 -41.698410034 -5.638842106 -17.736650467 11.914433479 -6.671655178 2.153377533 3.003493786 -0.465393394 1.8397578 26.354698181 -0.232639343 1.300056934 18.254867554 1.2806e-05 2.3906e-05 0.000551538 -15.42161274 16.582832336 9.628378868 -8.807457924 -0.742497563 -2.785902023 -8.80373764 0.232986674 -2.642054558 -13.949156761 6.796169758 10.42536068 -8.746603966 -0.896175981 -1.0940727 -8.580516815 0.079959922 -0.933777988 -13.699157715 -8.757633209 9.456303596 -10.29460907 1.844892859 1.52875936 -10.224943161 -0.10971278 1.194052696 -12.158753395 -25.328231812 11.169454575 -10.891093254 3.555301905 4.383676529 -10.717939377 -0.354600281 3.721360207 -5.417901993 18.192815781 4.469628811 0.004508055 14.920256615 -0.697175264 1.194720864 12.828633308 -1.730566382 -0.904492617 -18.257909775 0.894632697 2.524121523 24.601919174 14.139795303 0.046571527 8.784448624 1.132616401 -6.665051937 13.10362339 11.382472038 0.207967609 -15.895256042 -1.963707805 
-0.62467289 87.818084717 7.896074295 0.382522315 -20.221633911 0.136965126 -1.338729024 11.174674034 -0.025532076 -0.776479006 1.854598284 -0.11127229 8.899760246 19.225664139 -4.59586525 6.13065815 8.671824455 -0.825072765 24.851587296 19.348142624 -3.863134146 3.744396925 4.08701992 4.830708981 1.956861138 -20.821207047 1.561688304 4.257190704 1.064127922 10.281230927 50.211997986 19.248462677 17.502016068 -0.076125361 -10.09586525 22.226240158 9.305400848 -20.960187912 -3.190107107 6.839596748 2.175577879 -3.135382891 0.485333502 1.877701998 -26.945022583 0.243501455 1.330651641 -18.701498032 11.402484894 -16.591114044 -10.572268486 9.532858849 0.731702209 -2.768698454 9.584895134 -0.237638801 -2.62334156 12.503498077 -6.824881554 -11.347365379 9.548898697 0.896691918 -1.116950512 9.595046043 -0.08735387 -0.950943649 18.377784729 8.83341217 -10.989327431 11.440081596 -1.809893012 1.647619843 11.331938744 0.134780958 1.285212278 23.724609375 25.293266296 -12.189339638 11.790979385 -3.442662001 4.931722641 11.711551666 0.46563381 4.191170216 -2.30755949 0.230249092 -14.680826187 -52.067882538 41.391674042 -18.538093567 -0.661834478 -11.519263268 -41.668506622 -5.593333721 -18.097496033 11.981359482 -6.660515308 2.154777765 3.00085783 -0.464559317 1.838176608 26.330209732 -0.232119903 1.298581362 18.233358383 2.8174e-05 1.3661e-05 0.000575443 -15.448339462 16.546684265 9.567146301 -8.836123466 -0.740517378 -2.790528059 -8.825661659 0.234753251 -2.643819094 -13.932878494 6.786896229 10.431733131 -8.760267258 -0.895061135 -1.093884587 -8.596509933 0.080991849 -0.93437022 -13.554783821 -8.757450104 9.542283058 -10.268662453 1.842229724 1.534340382 -10.198370934 -0.110819794 1.198019743 -11.933056831 -25.347499847 11.300707817 -10.842113495 3.547071457 4.413455963 -10.685147285 -0.359497398 3.746436596 -5.362930775 18.132213593 4.437841415 0.006394958 14.903280258 -0.702775598 1.125808358 12.832665443 -1.662020564 -0.895915806 -18.259197235 0.889379621 2.515111208 24.627305984 14.285683632 0.049102731 8.62328434 1.14829278 -6.773135185 13.121552467 11.37584877 0.229164138 -15.90185833 -1.972657323 
-0.639913797 87.8331604 7.880947113 0.37485373 -20.171403885 0.138392255 -1.34698844 11.138260841 -0.032777384 -0.768818378 1.864558578 -0.126860172 8.864882469 19.211761475 -4.580178261 6.146276951 8.705382347 -0.841570854 24.699220657 19.294570923 -3.768433094 3.707179546 4.024859428 4.838759422 1.941512227 -20.824714661 1.578346133 4.267153263 1.094854832 10.257333755 50.363235474 19.054859161 17.360210419 -0.103122137 -10.297163963 22.444349289 9.299617767 -21.080423355 -3.376430035 6.827588081 2.176954746 -3.13230896 0.484583825 1.876304269 -26.923189163 0.243173793 1.329734087 -18.68806839 11.295989037 -16.576295853 -10.591441154 9.507475853 0.731228292 -2.77610755 9.548110962 -0.238281608 -2.630231619 12.393867493 -6.823061943 -11.352893829 9.539796829 0.895727158 -1.120425582 9.58590126 -0.087631837 -0.954248846 18.265287399 8.840890884 -11.054555893 11.442363739 -1.808228374 1.653318524 11.340034485 0.13585192 1.288379312 23.566402435 25.321874619 -12.265745163 11.799678802 -3.437139034 4.957257748 11.719275475 0.470718652 4.210089684 -2.311933994 0.230786145 -14.659590721 -52.224708557 41.181739807 -18.284772873 -0.695140958 -11.727437973 -41.682582855 -5.495213509 -18.383132935 12.073911667 -6.651545525 2.156585932 2.99892807 -0.463953942 1.836990714 26.311819077 -0.231710196 1.297415733 18.216360092 -5.123e-06 4.4396e-05 0.000493481 -15.425772667 16.519929886 9.538389206 -8.821527481 -0.740085602 -2.789514303 -8.807432175 0.235015586 -2.64120698 -13.883969307 6.780242443 10.428359032 -8.739093781 -0.894619107 -1.092055917 -8.580841064 0.081448801 -0.933528066 -13.423264503 -8.756329536 9.59233284 -10.228081703 1.841011167 1.537335634 -10.154243469 -0.11133974 1.199877858 -11.738871574 -25.350851059 11.390499115 -10.781772614 3.543766499 4.432266235 -10.635139465 -0.361872345 3.761581659 -5.326354027 18.064239502 4.427385807 0.008109082 14.88498497 -0.710089445 1.070730567 12.830514908 -1.618386269 -0.887428403 -18.283842087 0.888646722 2.505616665 24.623868942 14.383917809 0.050229989 8.487850189 1.154490829 -6.829470158 13.159661293 11.383718491 0.242383644 -15.915148735 -1.96944344 
